<mxfile host="app.diagrams.net" agent="Mozilla/5.0 (X11; Linux x86_64) AppleWebKit/537.36 (KHTML, like Gecko) Chrome/133.0.0.0 Safari/537.36" version="26.0.16">
  <diagram name="1 oldal" id="6v6tZSbkRN1Iuugm__Hn">
    <mxGraphModel dx="1761" dy="1707" grid="1" gridSize="10" guides="1" tooltips="1" connect="1" arrows="1" fold="1" page="1" pageScale="1" pageWidth="827" pageHeight="1169" math="0" shadow="0">
      <root>
        <mxCell id="0" />
        <mxCell id="1" parent="0" />
        <mxCell id="dRhvu17BhrYV3VOlv1lU-1" value="&lt;b&gt;Termék&lt;/b&gt;" style="rounded=0;whiteSpace=wrap;html=1;strokeWidth=2;" parent="1" vertex="1">
          <mxGeometry x="160" y="160" width="120" height="60" as="geometry" />
        </mxCell>
        <mxCell id="dRhvu17BhrYV3VOlv1lU-3" value="T-GY" style="rhombus;whiteSpace=wrap;html=1;" parent="1" vertex="1">
          <mxGeometry x="390" y="150" width="80" height="80" as="geometry" />
        </mxCell>
        <mxCell id="dRhvu17BhrYV3VOlv1lU-4" value="&lt;b&gt;Telephely&lt;/b&gt;" style="rounded=0;whiteSpace=wrap;html=1;strokeWidth=2;" parent="1" vertex="1">
          <mxGeometry x="580" y="160" width="120" height="60" as="geometry" />
        </mxCell>
        <mxCell id="dRhvu17BhrYV3VOlv1lU-5" value="&lt;u&gt;TKÓD&lt;/u&gt;" style="ellipse;whiteSpace=wrap;html=1;" parent="1" vertex="1">
          <mxGeometry x="50" y="310" width="80" height="30" as="geometry" />
        </mxCell>
        <mxCell id="dRhvu17BhrYV3VOlv1lU-6" value="NÉV" style="ellipse;whiteSpace=wrap;html=1;" parent="1" vertex="1">
          <mxGeometry x="230" y="310" width="80" height="30" as="geometry" />
        </mxCell>
        <mxCell id="dRhvu17BhrYV3VOlv1lU-7" value="db" style="ellipse;whiteSpace=wrap;html=1;" parent="1" vertex="1">
          <mxGeometry x="320" y="310" width="80" height="30" as="geometry" />
        </mxCell>
        <mxCell id="dRhvu17BhrYV3VOlv1lU-8" value="&lt;i&gt;ADÓSZÁM&lt;/i&gt;" style="ellipse;whiteSpace=wrap;html=1;" parent="1" vertex="1">
          <mxGeometry x="510" y="310" width="80" height="30" as="geometry" />
        </mxCell>
        <mxCell id="dRhvu17BhrYV3VOlv1lU-9" value="Postacím" style="ellipse;whiteSpace=wrap;html=1;" parent="1" vertex="1">
          <mxGeometry x="600" y="310" width="80" height="30" as="geometry" />
        </mxCell>
        <mxCell id="dRhvu17BhrYV3VOlv1lU-10" value="NÉV" style="ellipse;whiteSpace=wrap;html=1;" parent="1" vertex="1">
          <mxGeometry x="690" y="310" width="80" height="30" as="geometry" />
        </mxCell>
        <mxCell id="dRhvu17BhrYV3VOlv1lU-11" value="irsz" style="ellipse;whiteSpace=wrap;html=1;" parent="1" vertex="1">
          <mxGeometry x="510" y="390" width="80" height="30" as="geometry" />
        </mxCell>
        <mxCell id="dRhvu17BhrYV3VOlv1lU-12" value="Város" style="ellipse;whiteSpace=wrap;html=1;" parent="1" vertex="1">
          <mxGeometry x="600" y="390" width="80" height="30" as="geometry" />
        </mxCell>
        <mxCell id="dRhvu17BhrYV3VOlv1lU-13" value="utca" style="ellipse;whiteSpace=wrap;html=1;" parent="1" vertex="1">
          <mxGeometry x="690" y="390" width="80" height="30" as="geometry" />
        </mxCell>
        <mxCell id="dRhvu17BhrYV3VOlv1lU-14" value="" style="endArrow=none;html=1;rounded=0;exitX=0.5;exitY=0;exitDx=0;exitDy=0;entryX=0.5;entryY=1;entryDx=0;entryDy=0;" parent="1" source="dRhvu17BhrYV3VOlv1lU-5" target="dRhvu17BhrYV3VOlv1lU-1" edge="1">
          <mxGeometry width="50" height="50" relative="1" as="geometry">
            <mxPoint x="420" y="280" as="sourcePoint" />
            <mxPoint x="190" y="230" as="targetPoint" />
          </mxGeometry>
        </mxCell>
        <mxCell id="dRhvu17BhrYV3VOlv1lU-15" value="" style="endArrow=none;html=1;rounded=0;exitX=0.5;exitY=0;exitDx=0;exitDy=0;entryX=0.5;entryY=1;entryDx=0;entryDy=0;" parent="1" source="dRhvu17BhrYV3VOlv1lU-6" target="dRhvu17BhrYV3VOlv1lU-1" edge="1">
          <mxGeometry width="50" height="50" relative="1" as="geometry">
            <mxPoint x="420" y="280" as="sourcePoint" />
            <mxPoint x="470" y="230" as="targetPoint" />
          </mxGeometry>
        </mxCell>
        <mxCell id="dRhvu17BhrYV3VOlv1lU-16" value="" style="endArrow=none;html=1;rounded=0;exitX=0.5;exitY=0;exitDx=0;exitDy=0;entryX=0.5;entryY=1;entryDx=0;entryDy=0;" parent="1" source="dRhvu17BhrYV3VOlv1lU-7" target="dRhvu17BhrYV3VOlv1lU-1" edge="1">
          <mxGeometry width="50" height="50" relative="1" as="geometry">
            <mxPoint x="420" y="280" as="sourcePoint" />
            <mxPoint x="470" y="230" as="targetPoint" />
          </mxGeometry>
        </mxCell>
        <mxCell id="dRhvu17BhrYV3VOlv1lU-17" value="" style="endArrow=none;html=1;rounded=0;exitX=0.5;exitY=0;exitDx=0;exitDy=0;" parent="1" source="dRhvu17BhrYV3VOlv1lU-8" edge="1">
          <mxGeometry width="50" height="50" relative="1" as="geometry">
            <mxPoint x="420" y="280" as="sourcePoint" />
            <mxPoint x="640" y="220" as="targetPoint" />
          </mxGeometry>
        </mxCell>
        <mxCell id="dRhvu17BhrYV3VOlv1lU-19" value="" style="endArrow=none;html=1;rounded=0;exitX=0.5;exitY=0;exitDx=0;exitDy=0;entryX=0.5;entryY=1;entryDx=0;entryDy=0;" parent="1" source="dRhvu17BhrYV3VOlv1lU-9" target="dRhvu17BhrYV3VOlv1lU-4" edge="1">
          <mxGeometry width="50" height="50" relative="1" as="geometry">
            <mxPoint x="420" y="280" as="sourcePoint" />
            <mxPoint x="470" y="230" as="targetPoint" />
          </mxGeometry>
        </mxCell>
        <mxCell id="dRhvu17BhrYV3VOlv1lU-20" value="" style="endArrow=none;html=1;rounded=0;exitX=0.5;exitY=0;exitDx=0;exitDy=0;entryX=0.5;entryY=1;entryDx=0;entryDy=0;" parent="1" source="dRhvu17BhrYV3VOlv1lU-10" target="dRhvu17BhrYV3VOlv1lU-4" edge="1">
          <mxGeometry width="50" height="50" relative="1" as="geometry">
            <mxPoint x="420" y="280" as="sourcePoint" />
            <mxPoint x="470" y="230" as="targetPoint" />
          </mxGeometry>
        </mxCell>
        <mxCell id="dRhvu17BhrYV3VOlv1lU-22" value="" style="endArrow=classic;html=1;rounded=0;exitX=1;exitY=0.5;exitDx=0;exitDy=0;entryX=0;entryY=0.5;entryDx=0;entryDy=0;strokeWidth=2;" parent="1" source="dRhvu17BhrYV3VOlv1lU-3" target="dRhvu17BhrYV3VOlv1lU-4" edge="1">
          <mxGeometry width="50" height="50" relative="1" as="geometry">
            <mxPoint x="490" y="250" as="sourcePoint" />
            <mxPoint x="540" y="200" as="targetPoint" />
          </mxGeometry>
        </mxCell>
        <mxCell id="dRhvu17BhrYV3VOlv1lU-23" value="" style="endArrow=classic;html=1;rounded=0;entryX=1;entryY=0.5;entryDx=0;entryDy=0;exitX=0;exitY=0.5;exitDx=0;exitDy=0;strokeWidth=2;" parent="1" source="dRhvu17BhrYV3VOlv1lU-3" target="dRhvu17BhrYV3VOlv1lU-1" edge="1">
          <mxGeometry width="50" height="50" relative="1" as="geometry">
            <mxPoint x="320" y="230" as="sourcePoint" />
            <mxPoint x="370" y="180" as="targetPoint" />
          </mxGeometry>
        </mxCell>
        <mxCell id="dRhvu17BhrYV3VOlv1lU-24" value="" style="endArrow=classic;html=1;rounded=0;exitX=0;exitY=0.5;exitDx=0;exitDy=0;strokeWidth=2;" parent="1" source="dRhvu17BhrYV3VOlv1lU-3" edge="1">
          <mxGeometry width="50" height="50" relative="1" as="geometry">
            <mxPoint x="420" y="280" as="sourcePoint" />
            <mxPoint x="290" y="190" as="targetPoint" />
          </mxGeometry>
        </mxCell>
        <mxCell id="dRhvu17BhrYV3VOlv1lU-25" value="Telephely" style="ellipse;whiteSpace=wrap;html=1;" parent="1" vertex="1">
          <mxGeometry x="730" y="175" width="80" height="30" as="geometry" />
        </mxCell>
        <mxCell id="dRhvu17BhrYV3VOlv1lU-26" value="" style="endArrow=none;html=1;rounded=0;exitX=0;exitY=0.5;exitDx=0;exitDy=0;entryX=1;entryY=0.5;entryDx=0;entryDy=0;" parent="1" source="dRhvu17BhrYV3VOlv1lU-25" target="dRhvu17BhrYV3VOlv1lU-4" edge="1">
          <mxGeometry width="50" height="50" relative="1" as="geometry">
            <mxPoint x="420" y="280" as="sourcePoint" />
            <mxPoint x="470" y="230" as="targetPoint" />
          </mxGeometry>
        </mxCell>
        <mxCell id="dRhvu17BhrYV3VOlv1lU-27" value="" style="endArrow=none;html=1;rounded=0;exitX=0.5;exitY=0;exitDx=0;exitDy=0;entryX=0.5;entryY=1;entryDx=0;entryDy=0;" parent="1" source="dRhvu17BhrYV3VOlv1lU-11" target="dRhvu17BhrYV3VOlv1lU-9" edge="1">
          <mxGeometry width="50" height="50" relative="1" as="geometry">
            <mxPoint x="420" y="280" as="sourcePoint" />
            <mxPoint x="470" y="230" as="targetPoint" />
          </mxGeometry>
        </mxCell>
        <mxCell id="dRhvu17BhrYV3VOlv1lU-28" value="" style="endArrow=none;html=1;rounded=0;entryX=0.5;entryY=1;entryDx=0;entryDy=0;exitX=0.5;exitY=0;exitDx=0;exitDy=0;" parent="1" source="dRhvu17BhrYV3VOlv1lU-12" target="dRhvu17BhrYV3VOlv1lU-9" edge="1">
          <mxGeometry width="50" height="50" relative="1" as="geometry">
            <mxPoint x="630" y="400" as="sourcePoint" />
            <mxPoint x="680" y="350" as="targetPoint" />
          </mxGeometry>
        </mxCell>
        <mxCell id="dRhvu17BhrYV3VOlv1lU-29" value="" style="endArrow=none;html=1;rounded=0;entryX=0.5;entryY=1;entryDx=0;entryDy=0;exitX=0.5;exitY=0;exitDx=0;exitDy=0;" parent="1" source="dRhvu17BhrYV3VOlv1lU-13" target="dRhvu17BhrYV3VOlv1lU-9" edge="1">
          <mxGeometry width="50" height="50" relative="1" as="geometry">
            <mxPoint x="710" y="400" as="sourcePoint" />
            <mxPoint x="760" y="350" as="targetPoint" />
          </mxGeometry>
        </mxCell>
        <mxCell id="KtxNKEk7Mv9q-SLIf2oM-13" value="" style="edgeStyle=orthogonalEdgeStyle;rounded=0;orthogonalLoop=1;jettySize=auto;html=1;" parent="1" source="KtxNKEk7Mv9q-SLIf2oM-1" target="dRhvu17BhrYV3VOlv1lU-1" edge="1">
          <mxGeometry relative="1" as="geometry" />
        </mxCell>
        <mxCell id="KtxNKEk7Mv9q-SLIf2oM-1" value="&lt;b&gt;T_A&lt;/b&gt;" style="rhombus;whiteSpace=wrap;html=1;strokeWidth=2;" parent="1" vertex="1">
          <mxGeometry x="180" y="30" width="80" height="80" as="geometry" />
        </mxCell>
        <mxCell id="KtxNKEk7Mv9q-SLIf2oM-5" value="" style="endArrow=classic;html=1;rounded=0;strokeWidth=2;exitX=0.5;exitY=1;exitDx=0;exitDy=0;entryX=0.5;entryY=0;entryDx=0;entryDy=0;" parent="1" source="KtxNKEk7Mv9q-SLIf2oM-1" target="dRhvu17BhrYV3VOlv1lU-1" edge="1">
          <mxGeometry width="50" height="50" relative="1" as="geometry">
            <mxPoint x="170" y="110" as="sourcePoint" />
            <mxPoint x="220" y="150" as="targetPoint" />
          </mxGeometry>
        </mxCell>
        <mxCell id="KtxNKEk7Mv9q-SLIf2oM-9" value="" style="endArrow=classic;html=1;rounded=0;strokeWidth=2;entryX=0.5;entryY=0;entryDx=0;entryDy=0;" parent="1" edge="1">
          <mxGeometry width="50" height="50" relative="1" as="geometry">
            <mxPoint x="219.5" y="110" as="sourcePoint" />
            <mxPoint x="219.5" y="150" as="targetPoint" />
          </mxGeometry>
        </mxCell>
        <mxCell id="KtxNKEk7Mv9q-SLIf2oM-10" value="Alkatrész" style="rounded=0;whiteSpace=wrap;html=1;strokeWidth=2;" parent="1" vertex="1">
          <mxGeometry x="160" y="-90" width="120" height="60" as="geometry" />
        </mxCell>
        <mxCell id="KtxNKEk7Mv9q-SLIf2oM-11" value="&lt;u&gt;Akód&lt;/u&gt;" style="ellipse;whiteSpace=wrap;html=1;" parent="1" vertex="1">
          <mxGeometry x="50" y="-85" width="70" height="50" as="geometry" />
        </mxCell>
        <mxCell id="KtxNKEk7Mv9q-SLIf2oM-12" value="Név" style="ellipse;whiteSpace=wrap;html=1;" parent="1" vertex="1">
          <mxGeometry x="320" y="-85" width="70" height="50" as="geometry" />
        </mxCell>
        <mxCell id="KtxNKEk7Mv9q-SLIf2oM-14" value="" style="endArrow=classic;html=1;rounded=0;strokeWidth=2;entryX=0.5;entryY=1;entryDx=0;entryDy=0;exitX=0.5;exitY=0;exitDx=0;exitDy=0;" parent="1" source="KtxNKEk7Mv9q-SLIf2oM-1" target="KtxNKEk7Mv9q-SLIf2oM-10" edge="1">
          <mxGeometry width="50" height="50" relative="1" as="geometry">
            <mxPoint x="219.66" y="-20" as="sourcePoint" />
            <mxPoint x="219.66" y="20" as="targetPoint" />
          </mxGeometry>
        </mxCell>
        <mxCell id="KtxNKEk7Mv9q-SLIf2oM-15" value="" style="endArrow=classic;html=1;rounded=0;strokeWidth=2;exitX=0.5;exitY=0;exitDx=0;exitDy=0;" parent="1" source="KtxNKEk7Mv9q-SLIf2oM-1" edge="1">
          <mxGeometry width="50" height="50" relative="1" as="geometry">
            <mxPoint x="229.5" y="120" as="sourcePoint" />
            <mxPoint x="220" y="-20" as="targetPoint" />
          </mxGeometry>
        </mxCell>
        <mxCell id="KtxNKEk7Mv9q-SLIf2oM-16" value="" style="endArrow=none;html=1;rounded=0;exitX=1;exitY=0.5;exitDx=0;exitDy=0;entryX=0;entryY=0.5;entryDx=0;entryDy=0;" parent="1" source="KtxNKEk7Mv9q-SLIf2oM-11" target="KtxNKEk7Mv9q-SLIf2oM-10" edge="1">
          <mxGeometry width="50" height="50" relative="1" as="geometry">
            <mxPoint x="120" y="-50" as="sourcePoint" />
            <mxPoint x="170" y="-100" as="targetPoint" />
          </mxGeometry>
        </mxCell>
        <mxCell id="KtxNKEk7Mv9q-SLIf2oM-17" value="" style="endArrow=none;html=1;rounded=0;exitX=1;exitY=0.5;exitDx=0;exitDy=0;entryX=0;entryY=0.5;entryDx=0;entryDy=0;" parent="1" edge="1">
          <mxGeometry width="50" height="50" relative="1" as="geometry">
            <mxPoint x="280" y="-60.34" as="sourcePoint" />
            <mxPoint x="320" y="-60.34" as="targetPoint" />
          </mxGeometry>
        </mxCell>
        <mxCell id="QmnetnLqCHSHcf8WNzSf-1" value="Rendelés" style="rounded=0;whiteSpace=wrap;html=1;strokeWidth=2;" vertex="1" parent="1">
          <mxGeometry x="-270" y="160" width="120" height="60" as="geometry" />
        </mxCell>
        <mxCell id="QmnetnLqCHSHcf8WNzSf-2" value="R-T" style="rhombus;whiteSpace=wrap;html=1;" vertex="1" parent="1">
          <mxGeometry x="-40" y="150" width="80" height="80" as="geometry" />
        </mxCell>
        <mxCell id="QmnetnLqCHSHcf8WNzSf-3" value="dátum" style="ellipse;whiteSpace=wrap;html=1;" vertex="1" parent="1">
          <mxGeometry x="-340" y="310" width="80" height="30" as="geometry" />
        </mxCell>
        <mxCell id="QmnetnLqCHSHcf8WNzSf-4" value="ár" style="ellipse;whiteSpace=wrap;html=1;dashed=1;dashPattern=12 12;" vertex="1" parent="1">
          <mxGeometry x="-250" y="310" width="80" height="30" as="geometry" />
        </mxCell>
        <mxCell id="QmnetnLqCHSHcf8WNzSf-5" value="darabszám" style="ellipse;whiteSpace=wrap;html=1;" vertex="1" parent="1">
          <mxGeometry x="-160" y="310" width="80" height="30" as="geometry" />
        </mxCell>
        <mxCell id="QmnetnLqCHSHcf8WNzSf-6" value="" style="endArrow=none;html=1;rounded=0;exitX=0.5;exitY=0;exitDx=0;exitDy=0;entryX=0.5;entryY=1;entryDx=0;entryDy=0;" edge="1" parent="1" source="QmnetnLqCHSHcf8WNzSf-3" target="QmnetnLqCHSHcf8WNzSf-1">
          <mxGeometry width="50" height="50" relative="1" as="geometry">
            <mxPoint x="-10" y="280" as="sourcePoint" />
            <mxPoint x="-240" y="230" as="targetPoint" />
          </mxGeometry>
        </mxCell>
        <mxCell id="QmnetnLqCHSHcf8WNzSf-7" value="" style="endArrow=none;html=1;rounded=0;exitX=0.5;exitY=0;exitDx=0;exitDy=0;entryX=0.5;entryY=1;entryDx=0;entryDy=0;" edge="1" parent="1" source="QmnetnLqCHSHcf8WNzSf-4" target="QmnetnLqCHSHcf8WNzSf-1">
          <mxGeometry width="50" height="50" relative="1" as="geometry">
            <mxPoint x="-10" y="280" as="sourcePoint" />
            <mxPoint x="40" y="230" as="targetPoint" />
          </mxGeometry>
        </mxCell>
        <mxCell id="QmnetnLqCHSHcf8WNzSf-8" value="" style="endArrow=none;html=1;rounded=0;exitX=0.5;exitY=0;exitDx=0;exitDy=0;entryX=0.5;entryY=1;entryDx=0;entryDy=0;" edge="1" parent="1" source="QmnetnLqCHSHcf8WNzSf-5" target="QmnetnLqCHSHcf8WNzSf-1">
          <mxGeometry width="50" height="50" relative="1" as="geometry">
            <mxPoint x="-10" y="280" as="sourcePoint" />
            <mxPoint x="40" y="230" as="targetPoint" />
          </mxGeometry>
        </mxCell>
        <mxCell id="QmnetnLqCHSHcf8WNzSf-9" value="" style="endArrow=classic;html=1;rounded=0;entryX=1;entryY=0.5;entryDx=0;entryDy=0;exitX=0;exitY=0.5;exitDx=0;exitDy=0;strokeWidth=2;" edge="1" parent="1" source="QmnetnLqCHSHcf8WNzSf-2" target="QmnetnLqCHSHcf8WNzSf-1">
          <mxGeometry width="50" height="50" relative="1" as="geometry">
            <mxPoint x="-110" y="230" as="sourcePoint" />
            <mxPoint x="-60" y="180" as="targetPoint" />
          </mxGeometry>
        </mxCell>
        <mxCell id="QmnetnLqCHSHcf8WNzSf-10" value="" style="endArrow=classic;html=1;rounded=0;exitX=0;exitY=0.5;exitDx=0;exitDy=0;strokeWidth=2;" edge="1" parent="1" source="QmnetnLqCHSHcf8WNzSf-2">
          <mxGeometry width="50" height="50" relative="1" as="geometry">
            <mxPoint x="-10" y="280" as="sourcePoint" />
            <mxPoint x="-140" y="190" as="targetPoint" />
          </mxGeometry>
        </mxCell>
        <mxCell id="QmnetnLqCHSHcf8WNzSf-12" value="Rkód" style="ellipse;whiteSpace=wrap;html=1;" vertex="1" parent="1">
          <mxGeometry x="-380" y="172.5" width="80" height="35" as="geometry" />
        </mxCell>
        <mxCell id="QmnetnLqCHSHcf8WNzSf-13" value="" style="endArrow=none;html=1;rounded=0;exitX=1;exitY=0.5;exitDx=0;exitDy=0;entryX=0;entryY=0.5;entryDx=0;entryDy=0;" edge="1" parent="1" source="QmnetnLqCHSHcf8WNzSf-12" target="QmnetnLqCHSHcf8WNzSf-1">
          <mxGeometry width="50" height="50" relative="1" as="geometry">
            <mxPoint x="-290" y="190" as="sourcePoint" />
            <mxPoint x="-260" y="110" as="targetPoint" />
          </mxGeometry>
        </mxCell>
        <mxCell id="QmnetnLqCHSHcf8WNzSf-15" value="" style="endArrow=classic;html=1;rounded=0;strokeWidth=2;entryX=0;entryY=0.5;entryDx=0;entryDy=0;exitX=1;exitY=0.5;exitDx=0;exitDy=0;" edge="1" parent="1" source="QmnetnLqCHSHcf8WNzSf-2" target="dRhvu17BhrYV3VOlv1lU-1">
          <mxGeometry width="50" height="50" relative="1" as="geometry">
            <mxPoint x="60" y="180" as="sourcePoint" />
            <mxPoint x="-130" y="200" as="targetPoint" />
          </mxGeometry>
        </mxCell>
        <mxCell id="QmnetnLqCHSHcf8WNzSf-16" value="" style="endArrow=classic;html=1;rounded=0;strokeWidth=2;" edge="1" parent="1">
          <mxGeometry width="50" height="50" relative="1" as="geometry">
            <mxPoint x="60" y="189.41" as="sourcePoint" />
            <mxPoint x="150" y="189.41" as="targetPoint" />
          </mxGeometry>
        </mxCell>
        <mxCell id="QmnetnLqCHSHcf8WNzSf-17" value="NÉV" style="ellipse;whiteSpace=wrap;html=1;" vertex="1" parent="1">
          <mxGeometry x="140" y="310" width="80" height="30" as="geometry" />
        </mxCell>
        <mxCell id="QmnetnLqCHSHcf8WNzSf-18" value="" style="endArrow=none;html=1;rounded=0;exitX=0.5;exitY=0;exitDx=0;exitDy=0;" edge="1" parent="1" source="QmnetnLqCHSHcf8WNzSf-17">
          <mxGeometry width="50" height="50" relative="1" as="geometry">
            <mxPoint x="270" y="320" as="sourcePoint" />
            <mxPoint x="220" y="220" as="targetPoint" />
          </mxGeometry>
        </mxCell>
        <mxCell id="QmnetnLqCHSHcf8WNzSf-20" value="&lt;b&gt;R_V&lt;/b&gt;" style="rhombus;whiteSpace=wrap;html=1;strokeWidth=2;" vertex="1" parent="1">
          <mxGeometry x="-250" y="30" width="80" height="80" as="geometry" />
        </mxCell>
        <mxCell id="QmnetnLqCHSHcf8WNzSf-21" value="Vevo" style="rounded=0;whiteSpace=wrap;html=1;strokeWidth=2;" vertex="1" parent="1">
          <mxGeometry x="-270" y="-90" width="120" height="60" as="geometry" />
        </mxCell>
        <mxCell id="QmnetnLqCHSHcf8WNzSf-22" value="lakcím" style="ellipse;whiteSpace=wrap;html=1;" vertex="1" parent="1">
          <mxGeometry x="-240" y="-140" width="60" height="30" as="geometry" />
        </mxCell>
        <mxCell id="QmnetnLqCHSHcf8WNzSf-23" value="varos" style="ellipse;whiteSpace=wrap;html=1;" vertex="1" parent="1">
          <mxGeometry x="-330" y="-210" width="60" height="30" as="geometry" />
        </mxCell>
        <mxCell id="QmnetnLqCHSHcf8WNzSf-24" value="irsz" style="ellipse;whiteSpace=wrap;html=1;" vertex="1" parent="1">
          <mxGeometry x="-240" y="-210" width="60" height="30" as="geometry" />
        </mxCell>
        <mxCell id="QmnetnLqCHSHcf8WNzSf-25" value="utca" style="ellipse;whiteSpace=wrap;html=1;" vertex="1" parent="1">
          <mxGeometry x="-150" y="-210" width="60" height="30" as="geometry" />
        </mxCell>
        <mxCell id="QmnetnLqCHSHcf8WNzSf-26" value="nev" style="ellipse;whiteSpace=wrap;html=1;" vertex="1" parent="1">
          <mxGeometry x="-413" y="-210" width="60" height="30" as="geometry" />
        </mxCell>
        <mxCell id="QmnetnLqCHSHcf8WNzSf-27" value="vkod" style="ellipse;whiteSpace=wrap;html=1;" vertex="1" parent="1">
          <mxGeometry x="-380" y="-75" width="60" height="30" as="geometry" />
        </mxCell>
        <mxCell id="QmnetnLqCHSHcf8WNzSf-28" value="" style="ellipse;whiteSpace=wrap;html=1;" vertex="1" parent="1">
          <mxGeometry x="50" y="70" width="70" height="40" as="geometry" />
        </mxCell>
        <mxCell id="QmnetnLqCHSHcf8WNzSf-29" value="egység_ár" style="ellipse;whiteSpace=wrap;html=1;strokeWidth=2;" vertex="1" parent="1">
          <mxGeometry x="55" y="75" width="60" height="30" as="geometry" />
        </mxCell>
        <mxCell id="QmnetnLqCHSHcf8WNzSf-30" value="telephely" style="ellipse;whiteSpace=wrap;html=1;" vertex="1" parent="1">
          <mxGeometry x="790" y="307.5" width="80" height="35" as="geometry" />
        </mxCell>
        <mxCell id="QmnetnLqCHSHcf8WNzSf-31" value="" style="endArrow=none;html=1;rounded=0;entryX=0;entryY=0.5;entryDx=0;entryDy=0;exitX=0.5;exitY=1;exitDx=0;exitDy=0;" edge="1" parent="1" source="dRhvu17BhrYV3VOlv1lU-4" target="QmnetnLqCHSHcf8WNzSf-30">
          <mxGeometry width="50" height="50" relative="1" as="geometry">
            <mxPoint x="390" y="60" as="sourcePoint" />
            <mxPoint x="440" y="10" as="targetPoint" />
          </mxGeometry>
        </mxCell>
        <mxCell id="QmnetnLqCHSHcf8WNzSf-32" value="" style="endArrow=none;html=1;rounded=0;exitX=0;exitY=0;exitDx=0;exitDy=0;entryX=0.5;entryY=1;entryDx=0;entryDy=0;" edge="1" parent="1" source="dRhvu17BhrYV3VOlv1lU-1" target="QmnetnLqCHSHcf8WNzSf-28">
          <mxGeometry width="50" height="50" relative="1" as="geometry">
            <mxPoint x="390" y="60" as="sourcePoint" />
            <mxPoint x="440" y="10" as="targetPoint" />
          </mxGeometry>
        </mxCell>
        <mxCell id="QmnetnLqCHSHcf8WNzSf-33" value="" style="endArrow=none;html=1;rounded=0;exitX=0.5;exitY=0;exitDx=0;exitDy=0;entryX=0.5;entryY=1;entryDx=0;entryDy=0;" edge="1" parent="1" source="QmnetnLqCHSHcf8WNzSf-21" target="QmnetnLqCHSHcf8WNzSf-22">
          <mxGeometry width="50" height="50" relative="1" as="geometry">
            <mxPoint x="160" y="60" as="sourcePoint" />
            <mxPoint x="210" y="10" as="targetPoint" />
          </mxGeometry>
        </mxCell>
        <mxCell id="QmnetnLqCHSHcf8WNzSf-34" value="" style="endArrow=none;html=1;rounded=0;entryX=0.5;entryY=1;entryDx=0;entryDy=0;exitX=0.5;exitY=0;exitDx=0;exitDy=0;" edge="1" parent="1" source="QmnetnLqCHSHcf8WNzSf-22" target="QmnetnLqCHSHcf8WNzSf-24">
          <mxGeometry width="50" height="50" relative="1" as="geometry">
            <mxPoint x="160" y="60" as="sourcePoint" />
            <mxPoint x="210" y="10" as="targetPoint" />
          </mxGeometry>
        </mxCell>
        <mxCell id="QmnetnLqCHSHcf8WNzSf-35" value="" style="endArrow=none;html=1;rounded=0;entryX=0.5;entryY=1;entryDx=0;entryDy=0;exitX=0.5;exitY=0;exitDx=0;exitDy=0;" edge="1" parent="1" source="QmnetnLqCHSHcf8WNzSf-22" target="QmnetnLqCHSHcf8WNzSf-25">
          <mxGeometry width="50" height="50" relative="1" as="geometry">
            <mxPoint x="-200" y="-130" as="sourcePoint" />
            <mxPoint x="-200" y="-170" as="targetPoint" />
          </mxGeometry>
        </mxCell>
        <mxCell id="QmnetnLqCHSHcf8WNzSf-36" value="" style="endArrow=none;html=1;rounded=0;entryX=0.5;entryY=1;entryDx=0;entryDy=0;" edge="1" parent="1" target="QmnetnLqCHSHcf8WNzSf-23">
          <mxGeometry width="50" height="50" relative="1" as="geometry">
            <mxPoint x="-210" y="-140" as="sourcePoint" />
            <mxPoint x="-110" y="-170" as="targetPoint" />
          </mxGeometry>
        </mxCell>
        <mxCell id="QmnetnLqCHSHcf8WNzSf-37" value="" style="endArrow=none;html=1;rounded=0;exitX=0;exitY=0.5;exitDx=0;exitDy=0;entryX=1;entryY=0.5;entryDx=0;entryDy=0;" edge="1" parent="1" source="QmnetnLqCHSHcf8WNzSf-21" target="QmnetnLqCHSHcf8WNzSf-27">
          <mxGeometry width="50" height="50" relative="1" as="geometry">
            <mxPoint x="160" y="60" as="sourcePoint" />
            <mxPoint x="210" y="10" as="targetPoint" />
          </mxGeometry>
        </mxCell>
        <mxCell id="QmnetnLqCHSHcf8WNzSf-38" value="" style="endArrow=classic;html=1;rounded=0;strokeWidth=2;entryX=0.5;entryY=0;entryDx=0;entryDy=0;exitX=0.5;exitY=1;exitDx=0;exitDy=0;" edge="1" parent="1" source="QmnetnLqCHSHcf8WNzSf-20" target="QmnetnLqCHSHcf8WNzSf-1">
          <mxGeometry width="50" height="50" relative="1" as="geometry">
            <mxPoint x="229.5" y="120" as="sourcePoint" />
            <mxPoint x="229.5" y="160" as="targetPoint" />
          </mxGeometry>
        </mxCell>
        <mxCell id="QmnetnLqCHSHcf8WNzSf-39" value="" style="endArrow=classic;html=1;rounded=0;strokeWidth=2;exitX=0.5;exitY=0;exitDx=0;exitDy=0;entryX=0.5;entryY=1;entryDx=0;entryDy=0;" edge="1" parent="1" source="QmnetnLqCHSHcf8WNzSf-20" target="QmnetnLqCHSHcf8WNzSf-21">
          <mxGeometry width="50" height="50" relative="1" as="geometry">
            <mxPoint x="-150" y="150" as="sourcePoint" />
            <mxPoint x="-210" y="-20" as="targetPoint" />
            <Array as="points" />
          </mxGeometry>
        </mxCell>
        <mxCell id="QmnetnLqCHSHcf8WNzSf-41" value="" style="endArrow=classic;html=1;rounded=0;strokeWidth=2;" edge="1" parent="1">
          <mxGeometry width="50" height="50" relative="1" as="geometry">
            <mxPoint x="-210" y="120" as="sourcePoint" />
            <mxPoint x="-210.4" y="150" as="targetPoint" />
            <Array as="points" />
          </mxGeometry>
        </mxCell>
        <mxCell id="QmnetnLqCHSHcf8WNzSf-42" value="" style="endArrow=none;html=1;rounded=0;entryX=0.5;entryY=1;entryDx=0;entryDy=0;" edge="1" parent="1" target="QmnetnLqCHSHcf8WNzSf-26">
          <mxGeometry width="50" height="50" relative="1" as="geometry">
            <mxPoint x="-210" y="-90" as="sourcePoint" />
            <mxPoint x="-400" y="-140" as="targetPoint" />
          </mxGeometry>
        </mxCell>
      </root>
    </mxGraphModel>
  </diagram>
</mxfile>
